<svg viewBox="0 0 100 100" xmlns="http://www.w3.org/2000/svg">
  <rect width="100" height="100" rx="22" fill="#2D5016"/>
  <g transform="translate(18, 6) scale(0.82)">
    <line x1="34" y1="73" x2="34" y2="89" stroke="#F5F1E8" stroke-width="3" stroke-linecap="round"/>
    <line x1="46" y1="73" x2="46" y2="89" stroke="#F5F1E8" stroke-width="3" stroke-linecap="round"/>
    <g fill="#F5F1E8">
      <path d="M 19,55 C 14,52 11,54 10,58 C 11,62 14,62 19,60 Z"/>
      <path d="M 47,28 C 35,28 27,31 22,38 C 18,46 17,56 20,65 C 24,73 33,76 42,75 C 51,74 58,69 60,60 C 62,50 60,38 55,32 C 52,29 49,28 47,28 Z"/>
      <circle cx="52" cy="22" r="9"/>
      <path d="M 60,20.5 C 64,21 67,21.7 68,22 C 67,22.5 64,23.3 60,23.8 Z"/>
    </g>
    <ellipse cx="52" cy="18.5" rx="6.5" ry="1.2" fill="#2D5016"/>
    <circle cx="53" cy="19.5" r="1.1" fill="#2D5016"/>
  </g>
</svg>
