<svg viewBox="0 0 80 98" xmlns="http://www.w3.org/2000/svg">
  <line x1="34" y1="73" x2="34" y2="89" stroke="#3E2723" stroke-width="2.5" stroke-linecap="round"/>
  <line x1="46" y1="73" x2="46" y2="89" stroke="#3E2723" stroke-width="2.5" stroke-linecap="round"/>
  <line x1="29" y1="90" x2="39" y2="90" stroke="#3E2723" stroke-width="2.3" stroke-linecap="round"/>
  <line x1="41" y1="90" x2="51" y2="90" stroke="#3E2723" stroke-width="2.3" stroke-linecap="round"/>
  <path d="M 19,55 C 14,52 11,54 10,58 C 11,62 14,62 19,60 Z" fill="#2D5016"/>
  <path d="M 47,28 C 35,28 27,31 22,38 C 18,46 17,56 20,65 C 24,73 33,76 42,75 C 51,74 58,69 60,60 C 62,50 60,38 55,32 C 52,29 49,28 47,28 Z" fill="#D4A017"/>
  <path d="M 46,32 C 38,30 28,32 22,38 C 17,47 18,57 22,65 C 28,68 38,67 44,64 C 49,60 50,52 49,42 C 48,36 47,32 46,32 Z" fill="#2D5016"/>
  <ellipse cx="22" cy="63" rx="3.5" ry="2.3" fill="#B8413A"/>
  <ellipse cx="33" cy="44" rx="4" ry="2.7" fill="#5B7FA8"/>
  <ellipse cx="54" cy="32" rx="4.5" ry="2.6" fill="#EDDCAE"/>
  <circle cx="52" cy="22" r="9" fill="#3E2723"/>
  <ellipse cx="52" cy="18.5" rx="8" ry="1.5" fill="#EDDCAE"/>
  <path d="M 60,20.5 C 64,21 67,21.7 68,22 C 67,22.5 64,23.3 60,23.8 Z" fill="#3E2723"/>
  <circle cx="53" cy="19.5" r="1.3" fill="#1A0F0A"/>
</svg>
